<svg xmlns:xlink="http://www.w3.org/1999/xlink" width="32" height="32" viewBox="0 0 32 32" fill="none" xmlns="http://www.w3.org/2000/svg"><path d="M16.0899 29.12C13.4803 29.122 10.9288 28.3498 8.75816 26.9012C6.58755 25.4527 4.8954 23.3928 3.89584 20.9822C2.89628 18.5716 2.63423 15.9187 3.14285 13.3592C3.65147 10.7997 4.9079 8.44851 6.75316 6.60326C8.59842 4.758 10.9496 3.50157 13.5091 2.99295C16.0686 2.48433 18.7215 2.74638 21.1321 3.74594C23.5427 4.7455 25.6026 6.43764 27.0511 8.60826C28.4997 10.7789 29.2719 13.3304 29.2699 15.94C29.2672 19.4347 27.8778 22.7856 25.4066 25.2567C22.9355 27.7279 19.5846 29.1173 16.0899 29.12ZM16.0899 5.24999C13.9752 5.24801 11.9074 5.87329 10.1481 7.04672C8.38885 8.22015 7.01713 9.88901 6.2065 11.8422C5.39586 13.7953 5.18274 15.9451 5.59408 18.0194C6.00543 20.0937 7.02276 21.9994 8.51739 23.4954C10.012 24.9914 11.9168 26.0106 13.9907 26.4238C16.0646 26.8371 18.2145 26.626 20.1685 25.8172C22.1224 25.0084 23.7925 23.6383 24.9676 21.8801C26.1427 20.1219 26.7699 18.0547 26.7699 15.94C26.7673 13.1074 25.6415 10.3914 23.6395 8.38747C21.6375 6.38357 18.9225 5.25529 16.0899 5.24999Z" fill="#4C4C4C"></path><path d="M31 9C30.8699 8.67245 30.6716 8.37638 30.4181 8.13153C30.1646 7.88667 29.8619 7.69865 29.53 7.58C28.4257 7.24948 27.2549 7.20816 26.13 7.46C26.7312 8.16835 27.2542 8.93948 27.69 9.76C28.0289 9.70307 28.377 9.74833 28.69 9.89C28.77 10.82 25.27 15.07 16.78 19.28C8.08001 23.59 3.83001 24 3.25001 23.54C3.40468 22.8742 3.75257 22.2688 4.25001 21.8C3.82183 20.9589 3.48652 20.0737 3.25001 19.16C1.31001 21.16 0.250009 22.99 0.860009 24.44C0.990692 24.766 1.18941 25.0604 1.4429 25.3036C1.69639 25.5467 1.99882 25.733 2.33001 25.85C2.88502 26.0462 3.47161 26.1378 4.06001 26.12C8.06001 26.12 14.81 23.02 17.84 21.52C25.39 17.8 32.31 12.31 31 9Z" fill="#4C4C4C"></path><path d="M28.82 19.34C28.5872 20.2484 28.2517 21.1274 27.82 21.96C28.2556 22.3818 28.561 22.9198 28.7 23.51C27.97 23.96 23.7 23.51 15.18 19.28C6.66004 15.05 3.26004 10.93 3.26004 9.92998C3.62415 9.76889 4.02806 9.72014 4.42004 9.78998C4.86542 8.97053 5.39494 8.1997 6.00004 7.48998C4.81591 7.20729 3.57852 7.23831 2.41004 7.57998C2.07355 7.69442 1.76598 7.88071 1.50869 8.12592C1.2514 8.37113 1.05053 8.66938 0.920041 8.99998C-0.359959 12.31 6.56004 17.8 14.07 21.52C17.07 23.02 23.84 26.12 27.85 26.12C28.4384 26.1368 29.0248 26.0453 29.58 25.85C29.9027 25.7254 30.1957 25.5347 30.4402 25.2901C30.6848 25.0456 30.8754 24.7526 31 24.43C31.57 23 30.64 21.22 28.82 19.34Z" fill="#4C4C4C"></path></svg>